<svg width="82" height="53" viewBox="0 0 82 53" fill="none" xmlns="http://www.w3.org/2000/svg">
<path d="M22.5726 41.4614C20.0287 44.0202 12.397 38.5828 8.89917 35.5443H20.0287C21.9366 36.4505 25.1165 38.9027 22.5726 41.4614Z" fill="#D9D9D9" stroke="black"/>
<rect x="0.5" y="0.5" width="52.3953" height="35.2025" rx="9.5" fill="#D9D9D9" stroke="black"/>
<line x1="10.8062" y1="8.05701" x2="39.4108" y2="8.05701" stroke="#9B9999"/>
<line x1="10.8062" y1="13.981" x2="31.1472" y2="13.981" stroke="#9B9999"/>
<line x1="10.8062" y1="20.5632" x2="35.5968" y2="20.5632" stroke="#9B9999"/>
<line x1="10.8062" y1="26.4873" x2="35.5968" y2="26.4873" stroke="#9B9999"/>
<path d="M22.5726 41.4614C20.0287 44.0202 12.397 38.5828 8.89917 35.5443H20.0287C21.9366 36.4505 25.1165 38.9027 22.5726 41.4614Z" fill="#D9D9D9" stroke="#9B9999"/>
<rect x="0.5" y="0.5" width="52.3953" height="35.2025" rx="9.5" fill="#D9D9D9" stroke="#9B9999"/>
<line x1="10.8062" y1="8.05701" x2="39.4108" y2="8.05701" stroke="#9B9999"/>
<line x1="10.8062" y1="13.981" x2="31.1472" y2="13.981" stroke="#9B9999"/>
<line x1="10.8062" y1="20.5632" x2="35.5968" y2="20.5632" stroke="#9B9999"/>
<line x1="10.8062" y1="26.4873" x2="35.5968" y2="26.4873" stroke="#9B9999"/>
<path d="M51.1773 51.3348C48.6334 53.8936 41.0018 48.4562 37.5039 45.4177H48.6334C50.5414 46.3239 53.7212 48.7761 51.1773 51.3348Z" fill="#D9D9D9" stroke="black"/>
<rect x="29.1047" y="10.3734" width="52.3953" height="35.2025" rx="9.5" fill="#D9D9D9" stroke="black"/>
<line x1="39.4109" y1="17.9304" x2="68.0155" y2="17.9304" stroke="#9B9999"/>
<line x1="39.4109" y1="23.8544" x2="59.752" y2="23.8544" stroke="#9B9999"/>
<line x1="39.4109" y1="30.4368" x2="64.2016" y2="30.4368" stroke="#9B9999"/>
<line x1="39.4109" y1="36.3607" x2="64.2016" y2="36.3607" stroke="#9B9999"/>
<path d="M51.1773 51.3348C48.6334 53.8936 41.0018 48.4562 37.5039 45.4177H48.6334C50.5414 46.3239 53.7212 48.7761 51.1773 51.3348Z" fill="#D9D9D9" stroke="#A3A3A3"/>
<rect x="29.1047" y="10.3734" width="52.3953" height="35.2025" rx="9.5" fill="#D9D9D9" stroke="#A3A3A3"/>
<line x1="39.4109" y1="17.9304" x2="68.0155" y2="17.9304" stroke="#9B9999"/>
<line x1="39.4109" y1="23.8544" x2="59.752" y2="23.8544" stroke="#9B9999"/>
<line x1="39.4109" y1="30.4368" x2="64.2016" y2="30.4368" stroke="#9B9999"/>
<line x1="39.4109" y1="36.3607" x2="64.2016" y2="36.3607" stroke="#9B9999"/>
</svg>
