<svg width="53" height="48" viewBox="0 0 53 48" fill="none" xmlns="http://www.w3.org/2000/svg">
<path d="M20 2.5H33C42.665 2.5 50.5 10.335 50.5 20V24V28C50.5 37.665 42.665 45.5 33 45.5H20C10.335 45.5 2.5 37.665 2.5 28V20C2.5 10.335 10.335 2.5 20 2.5Z" fill="#D9D9D9" stroke="#0483F3" stroke-width="5"/>
<path d="M0 13H53V34H0V13Z" fill="#FFF8F8"/>
<path d="M0 13H53V34H0V13Z" fill="#FFF8F8"/>
<path d="M0 13H53V34H0V13Z" fill="#FFF8F8"/>
<path d="M0 13H53V34H0V13Z" fill="#FFF8F8"/>
<path d="M0 13H53V34H0V13Z" fill="#FFF8F8"/>
<rect x="20" width="17" height="48" fill="#FFF8F8"/>
<circle cx="28" cy="24" r="9" fill="#0483F3"/>
</svg>
