<svg width="71" height="77" viewBox="0 0 71 77" fill="none" xmlns="http://www.w3.org/2000/svg">
<path d="M0 14.8464H15.5854L12.5549 27.8128L0 31.2705V14.8464Z" fill="#0483F3"/>
<path d="M55.4147 13.1176H71V29.5416L60.1769 23.4907L55.4147 13.1176Z" fill="#73BCFC"/>
<rect width="23.3693" height="22.4835" transform="matrix(0.879098 0.476642 -0.47786 0.878436 32.3903 22.6263)" fill="#0483F3"/>
<path d="M0 40.7792L14.7195 46.3979L18.1829 59.7965H0V40.7792Z" fill="#0483F3"/>
<path d="M48.1526 14.5782L31.8649 18.051L21.9817 11.657L35.9203 3.5449e-06L48.1526 14.5782Z" fill="#73BCFC"/>
<path d="M54.9817 45.5335L70.9999 39.0503V58.0676H52.817L54.9817 45.5335Z" fill="#0483F3"/>
<path d="M22.5122 63.7285L36.0501 58.4857L48.8379 63.0703L36.6162 76.511L22.5122 63.7285Z" fill="#73BCFC"/>
</svg>
