<svg width="70" height="46" viewBox="0 0 70 46" fill="none" xmlns="http://www.w3.org/2000/svg">
<path fill-rule="evenodd" clip-rule="evenodd" d="M25.2989 0C31.7635 0 37.1963 4.56786 38.7432 10.7524C40.9021 9.32254 43.4688 8.49352 46.2229 8.49352C53.2156 8.49352 59.0011 13.8382 59.967 20.7924C65.6576 21.7671 70 26.9355 70 33.1652C70 40.0897 64.6347 45.7032 58.0163 45.7032C57.825 45.7032 57.6347 45.6985 57.4456 45.6892V45.7032H13.8859H11.413V45.4762C4.92383 44.2701 0 38.4022 0 31.3451C0 24.2881 4.92383 18.4201 11.413 17.214V14.5603H11.4144C11.4135 14.493 11.413 14.4256 11.413 14.3581C11.413 6.42834 17.6299 0 25.2989 0Z" fill="#FCFEFF"/>
<path d="M31.8184 33.8322L28.8464 46H39.231L36.4465 33.8322H42.5209L34.1325 26.1161L26.6118 33.8322H31.8184Z" fill="#0483F3"/>
</svg>
