<svg width="91" height="59" viewBox="0 0 91 59" fill="none" xmlns="http://www.w3.org/2000/svg">
<path fill-rule="evenodd" clip-rule="evenodd" d="M32.8886 0C41.2926 0 48.3552 5.80909 50.3663 13.6742C53.1727 11.8558 56.5095 10.8015 60.0897 10.8015C69.1802 10.8015 76.7014 17.5986 77.957 26.4425C85.3549 27.682 91 34.255 91 42.1774C91 50.9837 84.0251 58.1226 75.4212 58.1226C75.1725 58.1226 74.9252 58.1166 74.6794 58.1048V58.1226H18.0516H14.837V57.8339C6.40101 56.3001 0 48.8376 0 39.8628C0 30.8881 6.40101 23.4256 14.837 21.8918V18.5169H14.8387C14.8376 18.4313 14.837 18.3456 14.837 18.2597C14.837 8.17517 22.919 0 32.8886 0Z" fill="#0483F3"/>
<path d="M41.3636 43.0258L37.5 58.5H51L47.3802 43.0258H55.2768L44.3719 33.2129L34.595 43.0258H41.3636Z" fill="#FDFAFA"/>
</svg>
