<svg width="77" height="74" viewBox="0 0 77 74" fill="none" xmlns="http://www.w3.org/2000/svg">
<path d="M60.8861 48.3459C61.2029 49.115 62.0781 49.4837 62.841 49.1695L75.2727 44.0489C76.0356 43.7347 76.3972 42.8565 76.0804 42.0874C75.7636 41.3183 74.8884 40.9495 74.1255 41.2638L63.0751 45.8154L58.4863 34.6747C58.1696 33.9056 57.2943 33.5369 56.5315 33.8511C55.7686 34.1653 55.407 35.0435 55.7237 35.8126L60.8861 48.3459ZM26.3386 61.598C12.8815 55.9283 6.49853 40.2863 12.1149 26.6468L9.35025 25.482C3.11174 40.6324 10.1914 58.0502 25.1963 64.372L26.3386 61.598ZM12.1149 26.6468C17.7313 13.0073 33.2044 6.5736 46.6614 12.2433L47.8037 9.46925C32.7988 3.14743 15.5888 10.3316 9.35025 25.482L12.1149 26.6468ZM46.6614 12.2433C60.1185 17.913 66.5015 33.555 60.8851 47.1945L63.6497 48.3593C69.8883 33.2089 62.8086 15.7911 47.8037 9.46925L46.6614 12.2433Z" fill="#FCFEFF"/>
<path d="M27.0256 23.002L19.5947 33.1999L42.2588 51.6346H53.4051L51.1759 41.0445L27.0256 23.002Z" fill="#FCFEFF"/>
</svg>
