<svg width="44" height="42" viewBox="0 0 44 42" fill="none" xmlns="http://www.w3.org/2000/svg">
<path d="M43 21C43 32.0024 33.6423 41 22 41C10.3577 41 1 32.0024 1 21C1 9.99763 10.3577 1 22 1C33.6423 1 43 9.99763 43 21Z" fill="#D9D9D9" stroke="#01AD46" stroke-width="2"/>
<circle cx="16" cy="27" r="3" fill="#01AD46"/>
<circle cx="29" cy="26" r="3" fill="#01AD46"/>
<line x1="16.2146" y1="27.4333" x2="27.3963" y2="27.4333" stroke="#01AD46"/>
<path d="M30.6169 27.3142C31.0401 27.441 32.2673 27.5044 33.283 26.9338C34.612 26.1871 34.5525 23.4466 34.5525 22.1785V21.4667C34.5525 20.9144 34.1048 20.4667 33.5525 20.4667H32.2673" stroke="#01AD46"/>
<path d="M32.4059 20.4667H25.6074" stroke="#01AD46"/>
<rect x="24.5" y="19.5" width="1" height="2" rx="0.5" stroke="#01AD46"/>
<path d="M21.5 19C21.5 18.7239 21.7239 18.5 22 18.5H22.5C23.6046 18.5 24.5 19.3954 24.5 20.5C24.5 21.6046 23.6046 22.5 22.5 22.5H22C21.7239 22.5 21.5 22.2761 21.5 22V19Z" stroke="#01AD46"/>
<path d="M21.3582 19.4H19.5691" stroke="#01AD46" stroke-linecap="round"/>
<path d="M21.1345 21.5333H19.5691" stroke="#01AD46" stroke-linecap="round"/>
<path d="M22 20.3333L22.8571 19V20.3333L24 21L22.2857 22L22.8571 21L22 20.3333Z" fill="#01AD46" stroke="#01AD46" stroke-width="0.2"/>
<path d="M13.9014 28H8.16804L9.08537 27.1667C8.55026 27.1667 7.61764 26.7222 8.16804 24.9444C8.71844 23.1667 11.8374 19.6667 15.2774 18.5556L23.7627 13H30.4133H35" stroke="#01AD46" stroke-width="2"/>
<path d="M34.315 13C34.4902 13.2297 34.2421 13.4786 34.0961 13.5744C34.461 13.7658 35.1471 14.321 34.9719 15.0103C34.7967 15.6995 34.0231 16.4462 33.6582 16.7333" stroke="#01AD46" stroke-width="2" stroke-linecap="round"/>
</svg>
