<svg width="78" height="61" viewBox="0 0 78 61" fill="none" xmlns="http://www.w3.org/2000/svg">
<path d="M77 47C77 31.536 64.2401 19 48.5 19C32.7599 19 20 31.536 20 47" stroke="#B4ABAB" stroke-width="2"/>
<path d="M66 18.5C66 28.14 57.9664 36 48 36C38.0336 36 30 28.14 30 18.5C30 8.85999 38.0336 1 48 1C57.9664 1 66 8.85999 66 18.5Z" fill="#F1EBEB" stroke="#B4ABAB" stroke-width="2"/>
<path d="M58 61C58 45.536 45.2401 33 29.5 33C13.7599 33 1 45.536 1 61" stroke="#B4ABAB" stroke-width="2"/>
<path d="M47 32.5C47 42.14 38.9664 50 29 50C19.0336 50 11 42.14 11 32.5C11 22.86 19.0336 15 29 15C38.9664 15 47 22.86 47 32.5Z" fill="#F1EBEB" stroke="#B4ABAB" stroke-width="2"/>
</svg>
