<svg width="44" height="42" viewBox="0 0 44 42" fill="none" xmlns="http://www.w3.org/2000/svg">
<path d="M43 21C43 32.0024 33.6423 41 22 41C10.3577 41 1 32.0024 1 21C1 9.99763 10.3577 1 22 1C33.6423 1 43 9.99763 43 21Z" fill="#D9D9D9" stroke="#01AD46" stroke-width="2"/>
<rect x="8" y="15" width="28" height="14" rx="3" fill="#01AD46"/>
<rect x="39" y="18" width="7" height="5" rx="1" transform="rotate(89.5144 39 18)" fill="black"/>
<rect x="39" y="18" width="7" height="5" rx="1" transform="rotate(89.5144 39 18)" fill="black"/>
<rect x="39" y="18" width="7" height="5" rx="1" transform="rotate(89.5144 39 18)" fill="#144067"/>
<rect x="13.9924" y="16.5838" width="11.2183" height="5" rx="1" transform="rotate(89.0501 13.9924 16.5838)" fill="#08672E"/>
<rect x="19.9917" y="16.5521" width="11.225" height="5" rx="1" transform="rotate(89.0501 19.9917 16.5521)" fill="black"/>
<rect x="19.9917" y="16.5521" width="11.225" height="5" rx="1" transform="rotate(89.0501 19.9917 16.5521)" fill="black"/>
<rect x="19.9917" y="16.5521" width="11.225" height="5" rx="1" transform="rotate(89.0501 19.9917 16.5521)" fill="#08672E"/>
</svg>
