<svg width="365" height="131" viewBox="0 0 365 131" fill="none" xmlns="http://www.w3.org/2000/svg">
<path d="M60.7413 122.558H3V80.5479M3 80.5479H40.6573M3 80.5479V32.347H60.7413L87.9382 122.558L123.503 32.347H97.1434" stroke="url(#paint0_linear_33_151)" stroke-width="5" stroke-linecap="round"/>
<path d="M217.777 76.7479C213.402 89.193 208.655 100.079 202.195 107.848C195.826 115.507 187.817 120.119 176.642 120.119C154.074 120.119 135.627 101.129 135.627 77.5138C135.627 71.9607 138.348 64.5093 143.154 56.2378C147.913 48.0467 154.536 39.3548 161.929 31.4022C169.324 23.4481 177.424 16.3028 185.101 11.1668C192.87 5.96929 199.853 3.06946 205.094 3.06946C210.012 3.06946 213.706 5.60867 216.503 10.2641C219.36 15.0201 221.142 21.8133 221.976 29.6648C223.64 45.3116 221.446 64.1821 217.777 76.7479Z" stroke="#0483F3" stroke-width="5"/>
<path d="M270.367 32.7893H240.953L265.82 123L307.576 32.7893M307.576 32.7893H362M307.576 32.7893V78.7791M307.576 78.7791H336.665M307.576 78.7791V123H362" stroke="url(#paint1_linear_33_151)" stroke-width="5" stroke-linecap="round"/>
<path d="M197.144 73.9148C197.144 84.4165 188.902 92.9298 178.734 92.9298C168.567 92.9298 160.324 84.4165 160.324 73.9148C160.324 63.4131 168.567 54.8998 178.734 54.8998C188.902 54.8998 197.144 63.4131 197.144 73.9148Z" fill="#0483F3"/>
<defs>
<linearGradient id="paint0_linear_33_151" x1="25.5944" y1="32.7893" x2="87.5079" y2="101.486" gradientUnits="userSpaceOnUse">
<stop offset="0.00848043" stop-color="#C51919"/>
<stop offset="1" stop-color="#0483F3"/>
</linearGradient>
<linearGradient id="paint1_linear_33_151" x1="275.388" y1="38.0958" x2="365.21" y2="99.2715" gradientUnits="userSpaceOnUse">
<stop stop-color="#0483F3"/>
<stop offset="1" stop-color="#C51919"/>
</linearGradient>
</defs>
</svg>
